<svg id="svg" version="1.1" width="512" height="512" xmlns="http://www.w3.org/2000/svg" xmlns:xlink="http://www.w3.org/1999/xlink" style="display: block;"><g id="svgg"><path id="path0" d="M0.000 200.000 L 0.000 400.000 200.000 400.000 L 400.000 400.000 400.000 200.000 L 400.000 0.000 200.000 0.000 L 0.000 0.000 0.000 200.000 M211.811 51.923 C 256.393 58.644,285.589 100.606,277.058 145.703 C 270.541 180.159,243.483 229.887,205.644 276.953 C 199.347 284.785,200.427 284.798,194.086 276.811 C 172.416 249.516,153.650 220.854,140.470 194.922 C 130.635 175.571,123.642 154.240,121.817 138.022 C 116.066 86.909,160.690 44.217,211.811 51.923 M190.713 87.954 C 161.924 95.696,152.316 130.637,173.236 151.511 C 204.272 182.480,253.899 145.446,233.333 106.664 C 225.453 91.805,206.815 83.623,190.713 87.954 M209.082 107.898 C 221.779 114.432,222.793 133.077,210.880 140.961 C 197.641 149.722,180.867 140.585,180.861 124.609 C 180.856 109.987,195.867 101.098,209.082 107.898 M158.776 259.570 C 160.287 261.826,164.172 267.184,167.410 271.477 C 174.445 280.804,174.679 280.109,164.284 280.774 C 136.583 282.545,104.685 289.552,86.719 297.812 L 80.078 300.865 82.031 302.377 C 103.048 318.642,189.714 327.846,250.781 320.297 C 279.107 316.796,319.531 305.587,319.531 301.235 C 319.531 295.378,255.934 280.523,230.664 280.476 C 225.504 280.467,225.235 281.330,234.180 269.214 C 238.369 263.538,242.324 258.113,242.969 257.157 L 244.141 255.420 253.906 256.668 C 365.827 270.970,383.918 319.034,285.469 340.521 C 167.805 366.201,15.978 330.590,57.219 286.984 C 70.740 272.688,113.925 258.780,154.772 255.568 C 155.482 255.512,157.224 257.254,158.776 259.570 " stroke="none" fill="#ffffff" fill-rule="evenodd"></path><path id="path1" d="M189.258 51.614 C 147.610 57.029,117.102 96.117,121.817 138.022 C 124.880 165.242,138.707 196.750,165.300 237.109 C 177.448 255.546,198.745 283.918,200.059 283.417 C 201.893 282.717,222.368 255.458,232.789 239.844 C 281.858 166.320,290.739 118.352,262.140 81.304 C 245.264 59.441,217.149 47.988,189.258 51.614 M208.826 87.882 C 238.253 95.547,247.907 130.380,226.528 151.759 C 196.421 181.865,147.095 146.331,165.973 108.136 C 173.813 92.272,192.241 83.562,208.826 87.882 " stroke="none" fill="#ff5c5c" fill-rule="evenodd"></path><path id="path2" d="M193.553 106.541 C 175.369 113.291,176.975 139.862,195.803 143.771 C 209.884 146.694,221.701 134.916,218.784 120.867 C 216.475 109.742,204.004 102.662,193.553 106.541 " stroke="none" fill="#fff952" fill-rule="evenodd"></path><path id="path3" d="M148.047 256.347 C 40.354 269.752,16.064 314.219,103.516 337.870 C 171.085 356.145,280.090 350.921,325.705 327.223 C 378.016 300.047,341.318 266.532,247.656 255.946 L 244.141 255.548 235.547 267.264 C 230.820 273.707,226.854 279.260,226.733 279.604 C 226.612 279.947,230.127 280.450,234.545 280.721 C 264.518 282.561,298.521 290.161,315.674 298.853 C 320.440 301.268,320.466 301.068,315.022 303.816 C 266.172 328.476,147.651 329.922,90.625 306.554 C 86.973 305.058,83.106 303.167,82.032 302.352 L 80.079 300.871 87.891 297.242 C 104.091 289.717,135.535 282.932,164.781 280.652 C 173.511 279.971,173.746 279.639,169.377 274.131 C 165.044 268.667,161.505 263.794,158.518 259.180 C 157.123 257.024,155.571 255.510,154.816 255.568 C 154.101 255.622,151.055 255.973,148.047 256.347 " stroke="none" fill="#44d9e6" fill-rule="evenodd"></path></g></svg>