<svg id="svg" version="1.1" width="818" height="1000" xmlns="http://www.w3.org/2000/svg" xmlns:xlink="http://www.w3.org/1999/xlink" style="display: block;"><g id="svgg"><path id="path0" d="M192.421 172.597 C 188.951 172.997,182.414 174.583,179.717 175.679 C 177.082 176.749,168.467 181.213,167.472 182.024 C 166.939 182.457,164.853 184.125,162.836 185.729 C 160.819 187.334,158.065 190.046,156.717 191.756 C 152.232 197.445,151.100 198.962,151.100 199.285 C 151.100 199.461,150.690 200.189,150.189 200.903 C 142.539 211.795,140.574 234.632,146.059 248.900 C 148.202 254.474,149.149 256.309,156.028 268.215 C 163.493 281.136,165.033 285.574,165.788 296.333 C 166.631 308.361,167.692 311.286,173.401 317.319 L 177.141 321.271 199.994 321.271 L 222.847 321.271 226.024 317.852 C 231.737 311.700,233.343 306.932,234.189 293.606 C 234.745 284.851,235.686 282.180,242.017 271.394 C 243.516 268.839,245.019 266.198,245.355 265.526 C 245.692 264.853,246.580 263.203,247.328 261.858 C 251.351 254.629,252.746 251.891,253.302 250.122 C 253.640 249.046,254.088 247.946,254.297 247.677 C 254.506 247.408,254.922 245.978,255.221 244.499 C 255.519 243.020,256.085 240.379,256.478 238.631 C 258.033 231.713,256.625 215.769,254.015 210.721 C 253.622 209.961,253.296 209.054,253.290 208.704 C 253.280 208.120,252.483 206.512,248.780 199.611 C 245.649 193.775,235.820 183.909,229.867 180.629 C 228.947 180.122,227.077 179.090,225.711 178.336 C 217.058 173.560,203.835 171.281,192.421 172.597 M182.333 201.717 C 183.937 205.173,185.338 205.906,187.852 204.606 C 190.853 203.054,192.603 204.575,191.614 207.877 C 190.807 210.570,191.542 211.998,193.971 212.452 C 197.600 213.130,198.188 215.231,195.355 217.393 C 193.497 218.809,193.118 220.472,194.409 221.543 C 196.757 223.491,196.966 226.096,194.838 226.905 C 193.237 227.514,193.521 228.522,195.395 228.875 C 198.295 229.421,199.001 228.631,199.015 224.826 C 199.024 222.447,200.860 221.753,202.663 223.447 C 204.453 225.129,206.909 224.692,207.448 222.597 C 208.221 219.594,211.256 219.420,212.463 222.309 C 213.352 224.438,214.944 224.504,216.870 222.494 C 219.314 219.944,221.374 220.745,221.870 224.438 C 222.194 226.857,223.573 227.422,226.159 226.195 C 228.982 224.856,229.935 225.735,229.740 229.497 L 229.584 232.518 232.026 232.672 C 236.093 232.929,236.957 234.287,234.921 237.225 C 233.254 239.631,233.518 240.533,236.309 241.969 C 239.322 243.520,239.426 244.851,236.685 246.790 C 234.344 248.446,234.242 249.518,236.206 251.815 C 238.397 254.379,237.679 256.235,234.496 256.235 C 232.240 256.235,231.191 257.830,232.086 259.902 C 233.579 263.362,232.456 264.755,228.598 264.226 C 225.907 263.857,225.447 264.300,225.435 267.262 C 225.423 270.404,223.860 271.272,221.516 269.438 C 219.457 267.827,217.781 268.152,216.643 270.382 C 215.069 273.467,213.202 273.668,211.583 270.928 C 210.063 268.354,209.098 268.195,206.922 270.161 C 205.874 271.108,204.562 271.883,204.008 271.883 C 202.966 271.883,202.745 271.446,202.221 268.337 C 201.871 266.262,200.465 265.919,197.178 267.107 C 194.887 267.936,194.078 266.864,194.473 263.525 C 194.855 260.299,194.181 259.517,191.381 259.937 C 188.273 260.403,187.558 258.749,189.462 255.499 C 191.013 252.852,190.899 252.268,188.621 251.186 C 185.215 249.570,184.952 247.282,188.004 245.827 C 190.365 244.701,190.335 243.122,187.915 241.181 C 185.864 239.535,186.091 237.427,188.370 236.963 C 188.984 236.838,190.101 236.606,190.852 236.446 C 192.688 236.057,192.965 235.055,191.895 232.681 C 191.047 230.801,191.044 230.619,191.832 229.245 C 192.842 227.485,192.881 226.895,191.988 226.895 C 190.877 226.895,189.731 229.163,189.731 231.362 C 189.731 234.762,188.725 235.400,185.776 233.870 C 182.954 232.406,182.047 232.628,180.326 235.208 C 178.776 237.531,177.263 237.696,176.158 235.664 C 174.197 232.058,173.338 231.438,171.623 232.396 C 167.991 234.426,165.853 232.838,166.906 228.894 C 167.535 226.534,166.301 224.972,163.790 224.950 C 160.878 224.924,160.466 221.992,163.081 219.906 C 164.672 218.636,165.418 216.499,164.425 216.054 C 160.978 214.507,161.492 210.523,165.209 209.985 C 168.257 209.545,168.704 209.082,168.704 206.373 C 168.704 202.988,169.961 201.933,172.284 203.369 C 174.852 204.956,177.995 204.287,177.995 202.152 C 177.995 199.958,181.360 199.621,182.333 201.717 M175.882 211.937 C 168.945 215.005,171.546 226.406,179.182 226.406 C 182.407 226.406,185.889 223.681,186.537 220.650 C 187.907 214.247,181.852 209.296,175.882 211.937 M207.116 230.639 C 195.550 234.188,191.730 249.269,200.156 258.111 C 205.258 263.465,214.633 264.576,220.782 260.554 C 236.923 249.999,225.501 224.998,207.116 230.639 M216.870 236.361 C 225.425 240.361,225.425 252.505,216.870 256.539 C 212.504 258.598,207.779 257.714,204.382 254.202 C 195.709 245.236,205.608 231.095,216.870 236.361 M209.175 241.352 C 206.944 242.563,205.865 245.375,206.537 248.227 C 207.652 252.961,214.714 253.736,217.272 249.406 C 220.194 244.458,214.284 238.580,209.175 241.352 M201.899 272.489 L 203.872 274.562 205.342 273.694 C 207.274 272.553,209.109 273.946,208.339 275.971 C 207.764 277.484,208.907 279.218,210.481 279.218 C 212.623 279.218,213.000 280.464,211.508 282.616 L 210.176 284.539 211.499 286.274 C 213.078 288.345,212.856 289.273,210.669 289.741 C 208.304 290.247,207.824 290.829,207.824 293.185 C 207.824 295.762,207.443 296.043,205.214 295.112 C 203.110 294.232,202.151 294.538,201.192 296.392 C 200.187 298.335,198.746 298.217,197.490 296.088 C 196.374 294.197,195.732 294.030,193.668 295.097 C 191.910 296.006,191.420 295.497,190.938 292.259 C 190.745 290.961,190.339 289.824,190.036 289.733 C 189.734 289.642,188.881 289.436,188.142 289.274 C 186.516 288.917,186.383 287.700,187.775 285.930 C 188.313 285.246,188.753 284.366,188.753 283.974 C 188.753 283.582,188.313 282.702,187.775 282.018 C 186.350 280.207,186.540 279.375,188.459 279.015 C 190.551 278.622,191.085 277.976,191.284 275.593 C 191.476 273.297,192.657 272.315,194.124 273.231 C 195.733 274.236,196.880 273.930,198.255 272.127 C 199.852 270.034,199.533 270.002,201.899 272.489 M198.052 279.274 C 195.757 279.754,194.132 281.719,194.134 284.013 C 194.141 291.356,204.424 291.755,205.248 284.444 C 205.646 280.911,202.170 278.413,198.052 279.274 M183.613 324.201 C 176.815 324.622,175.935 325.042,176.135 327.771 C 176.381 331.135,175.863 331.069,200.651 330.930 C 221.712 330.812,222.601 330.770,223.267 329.858 C 224.242 328.524,224.130 326.466,223.027 325.468 C 221.328 323.930,199.361 323.224,183.613 324.201 M186.993 334.454 C 176.705 334.746,176.039 334.939,176.039 337.637 C 176.039 340.590,177.002 340.942,186.437 341.444 C 198.308 342.075,220.113 341.565,221.955 340.613 C 224.327 339.386,224.665 336.950,222.713 335.142 L 221.466 333.985 208.899 334.087 C 201.987 334.143,192.130 334.308,186.993 334.454 M177.114 345.441 C 175.276 347.534,175.343 348.687,177.411 350.560 L 178.704 351.731 200.104 351.475 C 224.618 351.183,224.137 351.263,223.865 347.526 C 223.631 344.303,223.190 344.238,199.261 343.903 L 178.718 343.614 177.114 345.441 M185.208 354.362 C 179.219 354.609,179.246 354.991,185.575 359.532 C 188.766 361.822,190.220 363.447,192.131 366.857 C 196.554 374.749,204.166 374.128,208.459 365.526 C 209.672 363.095,210.417 362.375,216.218 358.020 C 220.697 354.658,220.606 354.523,213.855 354.522 C 210.672 354.521,203.998 354.441,199.022 354.343 C 194.046 354.246,187.830 354.254,185.208 354.362 " stroke="none" fill="#ffffff" fill-rule="evenodd"></path><path id="path1" d="M197.155 1.201 C 194.924 2.424,194.236 2.898,189.813 6.267 C 186.032 9.146,182.389 12.245,181.228 13.570 C 180.698 14.175,180.111 14.670,179.924 14.670 C 179.737 14.670,176.641 17.675,173.044 21.349 C 169.447 25.022,165.568 28.974,164.425 30.132 C 163.282 31.290,162.347 32.338,162.347 32.460 C 162.347 32.583,161.522 33.568,160.513 34.649 C 157.490 37.890,156.227 39.350,153.512 42.737 C 152.089 44.513,150.744 45.966,150.523 45.966 C 150.303 45.966,150.122 46.285,150.122 46.675 C 150.122 47.065,149.839 47.560,149.492 47.775 C 148.662 48.290,143.765 55.099,143.765 55.738 C 143.765 56.011,143.566 56.235,143.323 56.235 C 143.079 56.235,142.254 57.250,141.489 58.492 C 140.724 59.733,139.875 61.109,139.604 61.548 C 139.332 61.988,138.287 63.617,137.281 65.168 C 136.275 66.720,135.452 68.205,135.452 68.469 C 135.452 68.733,135.276 68.949,135.061 68.949 C 134.845 68.949,134.181 69.884,133.585 71.027 C 132.988 72.170,131.848 74.095,131.050 75.306 C 130.253 76.516,129.443 77.836,129.251 78.240 C 129.059 78.643,127.130 82.166,124.964 86.069 C 121.374 92.539,116.153 102.863,113.545 108.650 C 112.401 111.187,111.727 115.354,112.328 116.177 C 113.923 118.365,130.020 118.857,200.000 118.857 C 269.980 118.857,286.077 118.365,287.672 116.177 C 288.273 115.354,287.599 111.187,286.455 108.650 C 283.847 102.863,278.626 92.539,275.036 86.069 C 272.870 82.166,270.941 78.643,270.749 78.240 C 270.557 77.836,269.747 76.516,268.950 75.306 C 268.152 74.095,267.012 72.170,266.415 71.027 C 265.819 69.884,265.155 68.949,264.939 68.949 C 264.724 68.949,264.548 68.733,264.548 68.469 C 264.548 68.205,263.725 66.720,262.719 65.168 C 261.713 63.617,260.668 61.988,260.396 61.548 C 260.125 61.109,259.276 59.733,258.511 58.492 C 257.746 57.250,256.921 56.235,256.677 56.235 C 256.434 56.235,256.235 56.011,256.235 55.738 C 256.235 55.099,251.338 48.290,250.508 47.775 C 250.161 47.560,249.878 47.065,249.878 46.675 C 249.878 46.285,249.690 45.966,249.461 45.966 C 249.232 45.966,248.048 44.700,246.831 43.154 C 245.614 41.608,243.830 39.462,242.865 38.386 C 241.901 37.311,240.279 35.485,239.260 34.330 C 232.876 27.090,216.868 11.614,210.513 6.541 C 202.257 -0.052,200.628 -0.703,197.155 1.201 M115.403 133.529 C 103.168 134.032,103.629 133.884,102.626 137.643 C 102.338 138.724,101.761 140.709,101.344 142.054 C 100.927 143.399,100.417 145.379,100.210 146.455 C 100.003 147.531,99.395 149.951,98.859 151.834 C 97.614 156.202,95.186 166.825,92.712 178.729 C 89.957 191.989,89.112 199.258,87.949 219.736 C 87.348 230.301,87.704 270.043,88.484 279.462 C 88.751 282.689,89.094 287.861,89.247 290.954 C 89.899 304.179,94.246 330.980,99.002 351.100 C 99.606 353.655,100.598 357.946,101.205 360.636 C 103.136 369.186,105.818 379.958,107.415 385.575 C 108.103 387.995,109.059 391.406,109.539 393.154 C 112.069 402.377,113.723 408.067,115.010 411.980 C 115.275 412.787,115.830 414.548,116.243 415.892 C 116.655 417.237,117.406 419.412,117.910 420.725 C 118.414 422.039,118.826 423.495,118.826 423.961 C 118.826 424.427,119.233 425.883,119.729 427.196 C 120.856 430.177,122.556 435.504,122.949 437.286 L 123.246 438.631 200.000 438.631 L 276.754 438.631 277.051 437.286 C 277.444 435.504,279.144 430.177,280.271 427.196 C 280.767 425.883,281.174 424.416,281.174 423.936 C 281.174 423.456,281.614 422.037,282.152 420.782 C 282.689 419.528,283.130 418.172,283.130 417.769 C 283.130 417.367,283.645 415.679,284.275 414.020 C 284.905 412.360,285.651 410.122,285.933 409.046 C 286.215 407.971,286.676 406.430,286.958 405.623 C 287.509 404.049,289.057 398.793,290.487 393.643 C 290.972 391.895,291.917 388.594,292.587 386.308 C 293.256 384.022,294.189 380.831,294.660 379.218 C 295.130 377.604,295.682 375.403,295.887 374.328 C 296.091 373.252,296.620 370.941,297.062 369.193 C 300.897 354.033,302.877 344.798,305.084 331.785 C 305.632 328.557,306.551 323.166,307.126 319.804 C 307.702 316.443,308.353 311.711,308.573 309.291 C 308.793 306.870,309.303 302.139,309.706 298.778 C 315.123 253.595,312.288 191.376,303.335 158.924 C 302.926 157.445,302.436 155.346,302.245 154.261 C 302.054 153.175,301.743 152.036,301.554 151.730 C 301.365 151.424,300.784 149.561,300.264 147.591 C 299.744 145.621,298.968 142.910,298.539 141.565 C 298.111 140.220,297.412 137.991,296.987 136.611 C 296.229 134.153,296.168 134.096,293.978 133.796 C 290.245 133.284,127.276 133.041,115.403 133.529 M214.444 174.052 C 220.474 175.802,222.547 176.590,225.711 178.336 C 227.077 179.090,228.947 180.122,229.867 180.629 C 235.820 183.909,245.649 193.775,248.780 199.611 C 252.483 206.512,253.280 208.120,253.290 208.704 C 253.296 209.054,253.622 209.961,254.015 210.721 C 256.625 215.769,258.033 231.713,256.478 238.631 C 256.085 240.379,255.519 243.020,255.221 244.499 C 254.922 245.978,254.506 247.408,254.297 247.677 C 254.088 247.946,253.640 249.046,253.302 250.122 C 252.746 251.891,251.351 254.629,247.328 261.858 C 246.580 263.203,245.692 264.853,245.355 265.526 C 245.019 266.198,243.516 268.839,242.017 271.394 C 235.686 282.180,234.745 284.851,234.189 293.606 C 233.343 306.932,231.737 311.700,226.024 317.852 L 222.847 321.271 199.994 321.271 L 177.141 321.271 173.401 317.319 C 167.692 311.286,166.631 308.361,165.788 296.333 C 165.033 285.574,163.493 281.136,156.028 268.215 C 149.149 256.309,148.202 254.474,146.059 248.900 C 140.574 234.632,142.539 211.795,150.189 200.903 C 150.690 200.189,151.100 199.461,151.100 199.285 C 151.100 198.962,152.232 197.445,156.717 191.756 C 158.065 190.046,160.819 187.334,162.836 185.729 C 164.853 184.125,166.939 182.457,167.472 182.024 C 168.467 181.213,177.082 176.749,179.717 175.679 C 189.005 171.905,204.534 171.178,214.444 174.052 M179.095 200.750 C 178.490 201.175,177.995 201.806,177.995 202.152 C 177.995 204.287,174.852 204.956,172.284 203.369 C 169.961 201.933,168.704 202.988,168.704 206.373 C 168.704 209.082,168.257 209.545,165.209 209.985 C 161.492 210.523,160.978 214.507,164.425 216.054 C 165.418 216.499,164.672 218.636,163.081 219.906 C 160.466 221.992,160.878 224.924,163.790 224.950 C 166.301 224.972,167.535 226.534,166.906 228.894 C 165.853 232.838,167.991 234.426,171.623 232.396 C 173.338 231.438,174.197 232.058,176.158 235.664 C 177.263 237.696,178.776 237.531,180.326 235.208 C 182.047 232.628,182.954 232.406,185.776 233.870 C 188.725 235.400,189.731 234.762,189.731 231.362 C 189.731 229.163,190.877 226.895,191.988 226.895 C 192.881 226.895,192.842 227.485,191.832 229.245 C 191.044 230.619,191.047 230.801,191.895 232.681 C 192.965 235.055,192.688 236.057,190.852 236.446 C 190.101 236.606,188.984 236.838,188.370 236.963 C 186.091 237.427,185.864 239.535,187.915 241.181 C 190.335 243.122,190.365 244.701,188.004 245.827 C 184.952 247.282,185.215 249.570,188.621 251.186 C 190.899 252.268,191.013 252.852,189.462 255.499 C 187.558 258.749,188.273 260.403,191.381 259.937 C 194.181 259.517,194.855 260.299,194.473 263.525 C 194.078 266.864,194.887 267.936,197.178 267.107 C 200.465 265.919,201.871 266.262,202.221 268.337 C 202.745 271.446,202.966 271.883,204.008 271.883 C 204.562 271.883,205.874 271.108,206.922 270.161 C 209.098 268.195,210.063 268.354,211.583 270.928 C 213.202 273.668,215.069 273.467,216.643 270.382 C 217.781 268.152,219.457 267.827,221.516 269.438 C 223.860 271.272,225.423 270.404,225.435 267.262 C 225.447 264.300,225.907 263.857,228.598 264.226 C 232.456 264.755,233.579 263.362,232.086 259.902 C 231.191 257.830,232.240 256.235,234.496 256.235 C 237.679 256.235,238.397 254.379,236.206 251.815 C 234.242 249.518,234.344 248.446,236.685 246.790 C 239.426 244.851,239.322 243.520,236.309 241.969 C 233.518 240.533,233.254 239.631,234.921 237.225 C 236.957 234.287,236.093 232.929,232.026 232.672 L 229.584 232.518 229.740 229.497 C 229.935 225.735,228.982 224.856,226.159 226.195 C 223.573 227.422,222.194 226.857,221.870 224.438 C 221.374 220.745,219.314 219.944,216.870 222.494 C 214.944 224.504,213.352 224.438,212.463 222.309 C 211.256 219.420,208.221 219.594,207.448 222.597 C 206.909 224.692,204.453 225.129,202.663 223.447 C 200.860 221.753,199.024 222.447,199.015 224.826 C 199.001 228.631,198.295 229.421,195.395 228.875 C 193.521 228.522,193.237 227.514,194.838 226.905 C 196.966 226.096,196.757 223.491,194.409 221.543 C 193.118 220.472,193.497 218.809,195.355 217.393 C 198.188 215.231,197.600 213.130,193.971 212.452 C 191.542 211.998,190.807 210.570,191.614 207.877 C 192.603 204.575,190.853 203.054,187.852 204.606 C 185.338 205.906,183.937 205.173,182.333 201.717 C 181.527 199.980,180.591 199.700,179.095 200.750 M182.242 211.757 C 186.168 213.210,188.167 219.788,185.640 222.942 C 182.673 226.648,178.391 227.396,174.992 224.803 C 167.752 219.281,173.692 208.591,182.242 211.757 M216.400 230.497 C 228.174 233.632,232.592 248.830,224.288 257.633 C 214.113 268.420,196.541 262.149,195.704 247.433 C 195.048 235.899,205.271 227.533,216.400 230.497 M207.572 236.237 C 198.727 240.910,198.968 252.660,207.994 256.758 C 216.582 260.658,226.164 251.443,222.589 242.723 C 219.981 236.363,213.023 233.358,207.572 236.237 M215.202 241.702 C 218.059 243.627,218.880 246.683,217.272 249.406 C 214.714 253.736,207.652 252.961,206.537 248.227 C 205.221 242.644,210.595 238.597,215.202 241.702 M198.255 272.127 C 196.880 273.930,195.733 274.236,194.124 273.231 C 192.657 272.315,191.476 273.297,191.284 275.593 C 191.085 277.976,190.551 278.622,188.459 279.015 C 186.540 279.375,186.350 280.207,187.775 282.018 C 188.313 282.702,188.753 283.582,188.753 283.974 C 188.753 284.366,188.313 285.246,187.775 285.930 C 186.383 287.700,186.516 288.917,188.142 289.274 C 188.881 289.436,189.734 289.642,190.036 289.733 C 190.339 289.824,190.745 290.961,190.938 292.259 C 191.420 295.497,191.910 296.006,193.668 295.097 C 195.732 294.030,196.374 294.197,197.490 296.088 C 198.746 298.217,200.187 298.335,201.192 296.392 C 202.151 294.538,203.110 294.232,205.214 295.112 C 207.443 296.043,207.824 295.762,207.824 293.185 C 207.824 290.829,208.304 290.247,210.669 289.741 C 212.856 289.273,213.078 288.345,211.499 286.274 L 210.176 284.539 211.508 282.616 C 213.000 280.464,212.623 279.218,210.481 279.218 C 208.907 279.218,207.764 277.484,208.339 275.971 C 209.109 273.946,207.274 272.553,205.342 273.694 L 203.872 274.562 201.899 272.489 C 199.533 270.002,199.852 270.034,198.255 272.127 M203.929 280.862 C 205.350 282.133,205.471 282.461,205.248 284.444 C 204.424 291.755,194.141 291.356,194.134 284.013 C 194.129 279.305,200.057 277.399,203.929 280.862 M216.059 324.185 C 223.620 324.734,225.773 326.429,223.267 329.858 C 222.383 331.067,179.799 331.599,177.506 330.429 C 175.737 329.527,175.473 326.010,177.108 325.135 C 179.366 323.926,204.175 323.321,216.059 324.185 M222.713 335.142 C 224.665 336.950,224.327 339.386,221.955 340.613 C 218.477 342.411,179.081 341.965,177.024 340.104 C 175.816 339.011,175.715 336.331,176.846 335.390 C 177.746 334.642,187.057 334.263,208.899 334.087 L 221.466 333.985 222.713 335.142 M74.803 335.326 C 73.549 336.209,72.472 336.832,68.721 338.840 C 67.501 339.493,66.504 340.208,66.504 340.429 C 66.504 340.650,66.064 340.831,65.526 340.831 C 64.988 340.831,64.548 341.007,64.548 341.223 C 64.548 341.438,63.612 342.100,62.469 342.694 C 61.326 343.288,59.511 344.326,58.435 345.002 C 57.359 345.678,56.149 346.374,55.746 346.548 C 55.342 346.723,54.462 347.288,53.790 347.805 C 53.117 348.321,51.907 349.053,51.100 349.430 C 50.293 349.807,48.753 350.672,47.677 351.352 C 46.601 352.032,45.391 352.732,44.988 352.908 C 44.584 353.085,43.594 353.686,42.787 354.244 C 40.594 355.762,39.575 356.376,37.286 357.557 C 36.143 358.147,35.208 358.806,35.208 359.022 C 35.208 359.237,34.768 359.413,34.230 359.413 C 33.692 359.413,33.252 359.589,33.252 359.805 C 33.252 360.020,32.317 360.684,31.174 361.281 C 30.031 361.877,28.105 363.008,26.895 363.793 C 24.328 365.458,22.896 366.294,20.538 367.505 C 19.597 367.988,18.716 368.535,18.582 368.720 C 18.447 368.905,17.567 369.448,16.626 369.927 C 15.685 370.405,14.804 370.956,14.670 371.150 C 14.535 371.345,13.105 372.211,11.491 373.075 C 9.878 373.939,7.567 375.285,6.357 376.067 C 5.147 376.849,3.462 377.854,2.614 378.300 L 1.071 379.110 0.719 385.675 C 0.189 395.574,0.888 470.278,1.597 479.462 L 2.200 487.286 3.807 487.212 C 4.690 487.171,6.891 486.431,8.697 485.566 C 10.503 484.702,13.521 483.274,15.403 482.393 C 21.462 479.559,25.154 477.769,26.406 477.059 C 27.078 476.678,29.609 475.428,32.029 474.282 C 36.688 472.075,42.242 469.372,44.110 468.401 C 44.727 468.080,45.617 467.632,46.088 467.405 C 46.559 467.178,47.329 466.793,47.800 466.549 C 48.270 466.305,50.196 465.341,52.078 464.407 C 53.961 463.474,56.815 462.023,58.422 461.184 C 60.028 460.344,61.568 459.653,61.845 459.647 C 62.121 459.641,62.897 459.206,63.570 458.680 C 64.242 458.154,65.177 457.719,65.648 457.713 C 66.119 457.707,66.504 457.511,66.504 457.278 C 66.504 457.045,67.549 456.397,68.826 455.839 C 70.104 455.280,71.699 454.494,72.372 454.093 C 73.044 453.691,75.685 452.330,78.240 451.069 C 80.795 449.807,85.086 447.595,87.775 446.153 C 90.465 444.711,92.995 443.381,93.399 443.198 C 93.802 443.016,96.079 441.777,98.458 440.446 L 102.783 438.027 102.461 435.761 C 102.284 434.516,101.739 432.176,101.250 430.562 C 99.853 425.950,97.968 419.628,96.877 415.892 C 96.327 414.010,95.429 410.993,94.882 409.189 C 94.335 407.384,93.888 405.497,93.888 404.996 C 93.888 404.494,93.337 402.466,92.665 400.489 C 91.993 398.512,91.443 396.474,91.443 395.960 C 91.443 395.446,91.022 393.449,90.507 391.523 C 89.196 386.616,86.389 373.869,84.350 363.570 C 82.880 356.145,81.468 349.494,80.195 344.010 C 79.696 341.858,79.155 339.438,78.991 338.631 C 78.159 334.512,77.121 333.693,74.803 335.326 M321.522 335.330 C 321.334 335.801,321.012 337.286,320.808 338.631 C 320.604 339.976,320.086 342.506,319.656 344.254 C 319.227 346.002,318.436 349.633,317.900 352.323 C 317.363 355.012,316.355 360.073,315.658 363.570 C 313.559 374.105,310.782 386.695,309.493 391.523 C 308.978 393.449,308.557 395.446,308.557 395.960 C 308.557 396.474,308.007 398.512,307.335 400.489 C 306.663 402.466,306.112 404.494,306.112 404.996 C 306.112 405.497,305.665 407.384,305.118 409.189 C 304.138 412.422,303.303 415.276,301.225 422.494 C 300.644 424.511,299.648 427.812,299.012 429.829 C 298.376 431.846,297.711 434.516,297.536 435.761 L 297.217 438.027 301.542 440.446 C 303.921 441.777,306.198 443.016,306.601 443.198 C 307.005 443.381,309.535 444.711,312.225 446.153 C 314.914 447.595,319.205 449.807,321.760 451.069 C 324.315 452.330,326.956 453.691,327.628 454.093 C 328.301 454.494,329.896 455.280,331.174 455.839 C 332.451 456.397,333.496 457.045,333.496 457.278 C 333.496 457.511,333.881 457.707,334.352 457.713 C 334.823 457.719,335.758 458.154,336.430 458.680 C 337.103 459.206,337.879 459.641,338.155 459.647 C 338.432 459.653,339.972 460.344,341.578 461.184 C 343.185 462.023,346.039 463.474,347.922 464.407 C 349.804 465.341,351.730 466.305,352.200 466.549 C 352.671 466.793,353.496 467.213,354.034 467.482 C 354.572 467.751,355.462 468.199,356.012 468.477 C 358.276 469.625,363.842 472.326,367.971 474.282 C 370.391 475.428,372.922 476.678,373.594 477.059 C 374.846 477.769,378.538 479.559,384.597 482.393 C 386.479 483.274,389.497 484.702,391.303 485.566 C 393.109 486.431,395.310 487.171,396.193 487.212 L 397.800 487.286 398.403 479.462 C 399.112 470.278,399.811 395.574,399.281 385.675 L 398.929 379.110 397.386 378.300 C 396.538 377.854,394.853 376.849,393.643 376.067 C 392.433 375.285,390.126 373.937,388.516 373.072 C 386.907 372.206,385.036 371.121,384.360 370.660 C 382.792 369.592,380.475 368.143,379.218 367.444 C 378.680 367.144,377.469 366.428,376.528 365.851 C 375.587 365.274,373.881 364.316,372.738 363.722 C 371.595 363.128,370.660 362.499,370.660 362.324 C 370.660 362.150,369.780 361.610,368.704 361.125 C 367.628 360.640,366.748 360.056,366.748 359.828 C 366.748 359.600,366.308 359.413,365.770 359.413 C 365.232 359.413,364.792 359.237,364.792 359.022 C 364.792 358.806,363.857 358.147,362.714 357.557 C 360.338 356.331,359.313 355.708,357.123 354.158 C 356.267 353.552,355.222 353.056,354.800 353.056 C 354.379 353.056,354.034 352.880,354.034 352.665 C 354.034 352.449,353.099 351.790,351.956 351.200 C 349.725 350.048,348.754 349.467,346.455 347.906 C 345.648 347.359,344.438 346.642,343.765 346.313 C 341.924 345.414,336.151 342.125,335.388 341.542 C 335.020 341.260,333.894 340.605,332.885 340.086 C 331.877 339.567,331.051 338.972,331.051 338.764 C 331.051 338.556,330.638 338.386,330.133 338.386 C 329.628 338.386,328.948 338.065,328.622 337.672 C 328.296 337.279,327.554 336.808,326.973 336.626 C 326.392 336.445,325.392 335.886,324.751 335.385 C 323.286 334.241,321.967 334.219,321.522 335.330 M221.760 344.834 C 223.587 345.434,223.726 345.613,223.865 347.526 C 224.137 351.263,224.618 351.183,200.104 351.475 L 178.704 351.731 177.411 350.560 C 175.343 348.687,175.276 347.534,177.114 345.441 L 178.718 343.614 199.261 343.903 C 214.244 344.113,220.334 344.365,221.760 344.834 M213.855 354.522 C 220.606 354.523,220.697 354.658,216.218 358.020 C 210.417 362.375,209.672 363.095,208.459 365.526 C 204.166 374.128,196.554 374.749,192.131 366.857 C 190.220 363.447,188.766 361.822,185.575 359.532 C 182.638 357.425,180.440 355.458,180.440 354.938 C 180.440 354.396,188.508 354.137,199.022 354.343 C 203.998 354.441,210.672 354.521,213.855 354.522 M156.724 452.805 C 129.124 453.388,127.796 453.568,128.285 456.669 C 129.302 463.124,129.589 464.530,130.279 466.443 C 130.704 467.620,131.051 469.021,131.051 469.558 C 131.051 470.094,131.589 472.212,132.246 474.264 C 132.903 476.316,133.875 479.535,134.408 481.418 C 134.940 483.301,135.648 485.776,135.981 486.919 L 136.587 488.998 200.000 488.998 L 263.413 488.998 264.019 486.919 C 264.352 485.776,265.060 483.301,265.592 481.418 C 266.125 479.535,267.097 476.316,267.754 474.264 C 268.411 472.212,268.949 470.094,268.949 469.558 C 268.949 469.021,269.296 467.620,269.721 466.443 C 270.411 464.530,270.698 463.124,271.715 456.669 C 272.113 454.143,270.733 453.778,258.924 453.280 C 244.094 452.655,178.286 452.349,156.724 452.805 " stroke="none" fill="#f26202" fill-rule="evenodd"></path></g></svg>