<?xml version="1.0" standalone="no"?>
<!DOCTYPE svg PUBLIC "-//W3C//DTD SVG 20010904//EN"
 "http://www.w3.org/TR/2001/REC-SVG-20010904/DTD/svg10.dtd">
<svg version="1.0" xmlns="http://www.w3.org/2000/svg"
 width="800.000000pt" height="480.000000pt" viewBox="0 0 800.000000 480.000000"
 preserveAspectRatio="xMidYMid meet">

<g transform="translate(0.000000,480.000000) scale(0.100000,-0.100000)"
fill="#000000" stroke="none">
<path d="M3418 3533 c7 -3 16 -2 19 1 4 3 -2 6 -13 5 -11 0 -14 -3 -6 -6z"/>
<path d="M3340 3522 c-46 -15 -153 -132 -136 -149 3 -3 54 -7 113 -9 115 -2
191 -20 310 -74 33 -15 85 -31 115 -35 64 -8 153 -47 191 -82 l27 -27 0 -245
-1 -246 -35 40 c-34 39 -34 41 -28 103 8 80 -18 145 -73 181 -46 30 -88 25
-195 -22 l-78 -34 43 -23 c23 -13 80 -49 127 -81 47 -31 99 -64 116 -73 18 -8
52 -39 77 -67 43 -49 46 -56 52 -128 4 -42 15 -150 26 -241 18 -157 39 -370
39 -398 0 -7 -4 -10 -10 -7 -12 7 -47 -10 -80 -41 -19 -17 -38 -23 -81 -25
-45 -2 -56 -6 -54 -18 1 -9 14 -20 28 -25 22 -8 31 -6 51 13 l24 22 68 -33
c67 -32 69 -35 78 -78 4 -25 8 -279 9 -565 l0 -520 -34 3 c-19 2 -44 10 -56
18 -12 8 -30 14 -40 14 -11 0 -14 -3 -7 -8 6 -4 17 -24 24 -44 13 -35 15 -37
52 -32 21 3 44 2 51 -4 14 -11 78 -22 72 -11 -3 4 2 13 11 20 10 8 13 21 9 36
-4 17 -1 23 11 23 12 0 14 5 8 18 -13 30 -22 191 -23 433 l-1 236 -30 44 c-16
24 -30 47 -30 50 0 3 14 4 30 1 l30 -4 0 53 c0 30 -11 131 -25 224 -14 94 -27
188 -30 210 -2 22 -9 85 -15 140 -11 105 -27 227 -36 283 -3 23 -2 32 5 27 7
-4 11 3 11 17 0 51 33 145 74 212 24 39 61 105 83 146 84 162 133 218 227 260
34 15 69 30 79 34 11 3 15 11 11 17 -8 14 -193 4 -208 -11 -4 -4 -15 -6 -22
-3 -16 6 -99 -30 -121 -53 -8 -7 -20 -17 -27 -21 -26 -17 -65 -81 -85 -140
-25 -73 -27 -172 -7 -231 13 -35 13 -49 0 -102 -25 -110 -31 -100 -44 81 -15
203 -9 485 11 544 l14 40 110 22 c61 12 126 22 147 22 21 1 81 21 145 50 190
85 300 99 397 49 23 -11 48 -24 56 -28 8 -4 15 -13 15 -21 0 -21 38 -57 54
-51 10 4 11 7 3 10 -7 2 -10 8 -6 13 3 5 0 9 -5 9 -6 0 -11 10 -11 21 0 18 2
19 15 9 21 -17 19 -1 -4 34 -63 96 -190 142 -342 124 -96 -11 -174 -49 -274
-135 -77 -65 -81 -67 -159 -79 -45 -6 -97 -15 -117 -19 -33 -6 -37 -5 -43 19
-8 31 -20 33 -39 5 l-15 -21 -41 27 c-22 15 -69 38 -103 50 -34 12 -65 29 -69
36 -4 8 -17 39 -30 69 -36 81 -71 118 -110 114 -18 -2 -38 -9 -45 -15 -13 -11
-75 -4 -106 13 -10 5 -18 15 -18 23 0 8 -8 16 -17 17 -53 4 -69 4 -83 0z m161
-89 c4 -4 -20 -6 -54 -5 -34 2 -66 8 -72 14 -12 13 113 4 126 -9z m-6 -43 c26
-7 23 -8 -20 -8 -27 -1 -68 3 -90 7 -38 8 -37 9 20 9 33 0 74 -4 90 -8z m1205
-9 c0 -4 -22 -7 -49 -7 -51 1 -75 -9 -52 -23 10 -6 9 -10 -5 -15 -9 -4 -22 -2
-28 4 -5 5 -18 10 -28 10 -50 0 7 36 67 42 41 4 95 -3 95 -11z m-1002 -488
c22 -24 22 -24 1 -18 -16 5 -19 4 -14 -5 5 -9 4 -11 -4 -6 -6 4 -9 12 -6 17 4
5 -3 9 -13 9 -24 0 -74 25 -66 33 13 12 80 -8 102 -30z"/>
<path d="M3177 3363 c-9 -3 -15 -9 -12 -14 3 -5 0 -6 -8 -4 -23 9 -67 -33 -67
-64 0 -32 27 -61 57 -61 16 0 22 9 28 37 4 21 13 50 22 66 16 31 9 46 -20 40z"/>
<path d="M3373 2943 c-3 -10 -8 -22 -11 -28 -3 -5 4 -1 16 9 24 20 28 36 12
36 -6 0 -13 -8 -17 -17z"/>
<path d="M3400 2923 c-28 -19 -25 -30 11 -49 29 -15 34 -15 71 2 l40 18 -23
17 c-31 23 -75 29 -99 12z"/>
<path d="M4290 1474 c-34 -11 -110 -48 -110 -53 0 -3 12 -7 26 -7 33 -2 81
-48 89 -85 4 -16 11 -29 17 -29 6 0 8 -7 4 -15 -3 -8 0 -20 7 -27 19 -20 51
-97 43 -105 -9 -10 -27 19 -21 34 2 7 -2 18 -9 26 -8 7 -24 33 -36 57 -12 23
-27 49 -33 57 -29 37 -69 73 -80 74 -77 7 -76 7 -61 -23 8 -15 19 -28 24 -28
6 0 10 -9 10 -20 0 -11 6 -20 14 -20 8 0 16 -10 20 -23 8 -33 101 -124 141
-137 31 -10 39 -9 65 10 17 12 30 27 28 33 -4 26 14 77 25 71 8 -5 8 -2 0 7
-7 7 -13 33 -14 59 -1 35 -3 39 -8 20 -6 -20 -9 -22 -16 -10 -5 8 -10 17 -10
20 -2 18 -53 80 -66 80 -23 0 -32 28 -11 33 13 4 13 5 -3 5 -11 0 -27 -2 -35
-4z m49 -78 c13 -14 20 -29 17 -35 -4 -7 -1 -8 8 -5 12 5 16 0 16 -20 0 -16
-6 -26 -15 -26 -8 0 -15 5 -15 11 0 7 -16 32 -36 55 -30 37 -32 44 -16 44 10
0 29 -11 41 -24z"/>
<path d="M4030 726 c0 -9 5 -16 10 -16 6 0 10 4 10 9 0 6 -4 13 -10 16 -5 3
-10 -1 -10 -9z"/>
<path d="M3415 669 c-11 -16 2 -22 32 -14 26 7 26 8 8 15 -28 12 -33 12 -40
-1z"/>
<path d="M3622 660 c-7 -12 -17 -18 -22 -15 -5 3 -11 2 -14 -3 -5 -9 -4 -9 57
-16 21 -2 41 -6 44 -10 3 -3 15 -6 25 -6 15 0 17 5 12 28 -4 15 -10 31 -15 36
-9 10 -59 -19 -59 -34 0 -6 -5 -10 -10 -10 -6 0 -8 11 -4 25 8 30 3 32 -14 5z"/>
<path d="M3797 628 c-21 -7 -27 -16 -25 -31 3 -25 60 -57 66 -39 2 7 25 12 52
12 27 0 52 5 55 10 4 6 -10 10 -34 10 -54 0 -70 7 -64 31 6 21 -6 23 -50 7z"/>
<path d="M3550 610 c-13 -8 -12 -10 3 -10 9 0 17 5 17 10 0 12 -1 12 -20 0z"/>
<path d="M4575 600 c3 -5 8 -10 11 -10 2 0 4 5 4 10 0 6 -5 10 -11 10 -5 0 -7
-4 -4 -10z"/>
<path d="M3722 548 c5 -15 28 -18 29 -3 0 6 -7 12 -17 13 -10 3 -15 -1 -12
-10z"/>
<path d="M4207 543 c-3 -4 1 -17 9 -28 10 -13 14 -15 14 -4 0 20 -16 43 -23
32z"/>
<path d="M3630 520 c0 -5 7 -7 15 -4 8 4 15 8 15 10 0 2 -7 4 -15 4 -8 0 -15
-4 -15 -10z"/>
<path d="M4270 500 c8 -5 22 -9 30 -9 10 0 8 3 -5 9 -27 12 -43 12 -25 0z"/>
<path d="M3916 460 c7 -28 12 -35 18 -29 2 2 -2 15 -10 29 l-15 25 7 -25z"/>
<path d="M3710 446 c0 -9 5 -16 10 -16 6 0 10 4 10 9 0 6 -4 13 -10 16 -5 3
-10 -1 -10 -9z"/>
</g>
</svg>
