<?xml version="1.0" encoding="UTF-8"?>
<svg width="146px" height="151px" viewBox="0 0 146 151" version="1.1" xmlns="http://www.w3.org/2000/svg" xmlns:xlink="http://www.w3.org/1999/xlink">
    <!-- Generator: Sketch 47 (45396) - http://www.bohemiancoding.com/sketch -->
    <title>logo</title>
    <desc>Created with Sketch.</desc>
    <defs></defs>
    <g id="Page-1" stroke="none" stroke-width="1" fill="none" fill-rule="evenodd">
        <g id="logo">
            <path d="M125.5,121.2 L125.5,126.5 C122.120381,131.877961 117.781737,136.589457 112.7,140.4 C98.8,150.7 83.5,150.4 74.5,150.2 C63.4708802,149.787697 52.616779,147.311605 42.5,142.9 C30.7955448,137.803011 20.2232842,130.426225 11.4,121.2 C20.1157599,113.893326 29.938545,108.019908 40.5,103.8 C48.3,100.7 58.9,96.6 73.4,96.7 C80.2,96.7 93.8,97 108,105.6 C114.772324,109.639782 120.711819,114.934417 125.5,121.2 Z" id="Shape" stroke="#8EED9B" fill="#8EED9B"></path>
            <path d="M41.8,123.2 L41.8,123.3 L135.8,126.68 C136.73,125.15 137.55,123.4 138.67,121.61 L41.8,123.2 Z" id="Shape" fill="#F3FF9B" fill-rule="nonzero"></path>
            <path d="M9.3,100.8 L5,98 C2.37360862,92.3391249 0.846537081,86.2308387 0.5,80 C-0.5,62.9 7.9,50.1 12.9,42.6 C19.1007524,33.5061042 26.932974,25.6399769 36,19.4 C46.3706863,12.2112599 58.0621953,7.14720513 70.4,4.5 C71.7293348,15.6989527 71.2906511,27.0372373 69.1,38.1 C67.5,46.3 65.2,57.5 57.4,69.6 C53.8,75.3 46.3,86.6 31.6,94.2 C24.6505973,97.7896058 17.0836532,100.02915 9.3,100.8 Z" id="Shape" stroke="#8EED9B" fill="#8EED9B"></path>
            <path d="M86.7,11.9 L91.2,9.5 C97.4464542,9.96574166 103.551046,11.5936328 109.2,14.3 C124.7,21.8 131.7,35.4 135.8,43.4 C140.733773,53.2485697 143.786035,63.9314851 144.8,74.9 C146.020544,87.4623079 144.728788,100.141914 141,112.2 C130.572364,107.912647 120.886581,102.006682 112.3,94.7 C105.9,89.3 97.3,81.8 90.5,69.1 C87.3,63.1 81.1,51.1 81.6,34.6 C81.9360305,26.7901856 83.6631047,19.1030122 86.7,11.9 L86.7,11.9 Z" id="Shape" stroke="#8EED9B" fill="#8EED9B"></path>
            <polygon id="Shape" fill="#F3FF9B" fill-rule="nonzero" points="128.5 84.5 86.3 0 80.61 0 128.3 84.6"></polygon>
            <path d="M51.11,28 L51.02,28 L0.42,107.22 C1.26,108.8 2.36,110.4 3.33,112.22 L51.11,28 Z" id="Shape" fill="#F3FF9B" fill-rule="nonzero"></path>
        </g>
    </g>
</svg>